<?xml version="1.0" encoding="UTF-8" ?>
<svg
  xmlns="http://www.w3.org/2000/svg"
  viewBox="0 0 20 20"
  height="20"
  width="20"
>
    <path
    d="M9.91,12.17a2.25,2.25,0,0,0-2.38,2.1,2.25,2.25,0,0,0,2.38,2.1,2.25,2.25,0,0,0,2.37-2.1A2.25,2.25,0,0,0,9.91,12.17Z"
  />
    <path
    d="M14.06,7.73V5.66c.39-.16.77-.29,1.14-.42a10.37,10.37,0,0,0,1.25-.47,14.86,14.86,0,0,0,2.74-2l-.51-.55a13.79,13.79,0,0,1-2.56,1.84A10.4,10.4,0,0,1,15,4.53a12.83,12.83,0,0,0-1.43.54A7.13,7.13,0,0,0,12,6a3.52,3.52,0,0,1-1,.67l-.11-.08a.53.53,0,0,1-.21-.35c0-.15.13-.3.24-.41.82-.72,2.33-1.77,2.35-1.78l-.43-.62s-.35.24-.75.54H8.61a4.35,4.35,0,0,1,.84-.81l.17-.12c.68-.5,1.06-.78,3.23-.78a6.39,6.39,0,0,0,4-1.11L16.33.61a5.88,5.88,0,0,1-3.48.94c-2.31,0-2.85.32-3.68.93L9,2.59A5.63,5.63,0,0,0,7.68,4H5.75V7.73h-1L2,10.89v7.63H18V10.89L15.29,7.73Zm-6.18-3H11c-.24.19-.48.38-.67.55a1.22,1.22,0,0,0-.5,1,1.26,1.26,0,0,0,.43.84.53.53,0,0,0,.28.27.75.75,0,0,0,.26.05,2.93,2.93,0,0,0,1.6-.86A5.72,5.72,0,0,1,13.31,6V9.42H6.5V4.76Zm2,12.36a3,3,0,0,1-3.13-2.85,3,3,0,0,1,3.13-2.85A3,3,0,0,1,13,14.27,3,3,0,0,1,9.91,17.12Z"
  />
</svg>
